<svg id="Capa_1" data-name="Capa 1" xmlns="http://www.w3.org/2000/svg" viewBox="0 0 538.05 128.88"><defs><style>.cls-1{fill:#9c0437;}.cls-2{fill:#fff;}</style></defs><title>01-logo-color</title><path class="cls-1" d="M690,351.91a10.17,10.17,0,0,1-10.18,10.17H162.09a10.17,10.17,0,0,1-10.17-10.17V243.37a10.17,10.17,0,0,1,10.17-10.17H679.8A10.18,10.18,0,0,1,690,243.37Z" transform="translate(-151.92 -233.2)"></path><path class="cls-2" d="M282,274h5.68L293,284.46H293L298.25,274H304v21H298.4V284.7h-.09l-3.52,6.54h-3.58l-3.52-6.6h-.09V295H282Z" transform="translate(-151.92 -233.2)"></path><path class="cls-2" d="M307.75,284.52c0-6.39,4.47-10.83,10.92-10.83s10.92,4.38,10.92,10.83-4.53,10.8-10.92,10.8S307.75,290.91,307.75,284.52Zm15.92,0c0-3.08-2-5.56-5-5.56s-5,2.46-5,5.56,2.07,5.56,5,5.56S323.67,287.63,323.67,284.52Z" transform="translate(-151.92 -233.2)"></path><path class="cls-2" d="M333.38,274h5.36l7.43,11.9.06,0V274h5.53v21h-5.53l-7.28-11.51h-.06V295h-5.5Z" transform="translate(-151.92 -233.2)"></path><path class="cls-2" d="M360.42,279h-5.24v-5h16.25v5h-5.24v16h-5.77Z" transform="translate(-151.92 -233.2)"></path><path class="cls-2" d="M373.15,284.52c0-6.39,4.47-10.83,10.92-10.83S395,278.07,395,284.52s-4.53,10.8-10.92,10.8S373.15,290.91,373.15,284.52Zm15.92,0c0-3.08-2-5.56-5-5.56s-5,2.46-5,5.56,2.07,5.56,5,5.56S389.07,287.63,389.07,284.52Z" transform="translate(-151.92 -233.2)"></path><path class="cls-2" d="M398.77,274h8.4c5.3,0,7.66,3.14,7.66,7.46a6.46,6.46,0,0,1-3.61,6.27L416,295h-6.54l-4-6.42h-1.3V295h-5.44Zm7.46,9.74c1.78,0,2.78-.83,2.78-2.4,0-1.3-.74-2.4-2.78-2.4h-2v4.79Z" transform="translate(-151.92 -233.2)"></path><path class="cls-2" d="M419.16,274h5.36l7.43,11.9.06,0V274h5.53v21H432l-7.28-11.51h-.06V295h-5.5Z" transform="translate(-151.92 -233.2)"></path><path class="cls-2" d="M442,274h14v5h-8.52v3.17h6.66V287h-6.66v3h9.14v5H442Zm1.78-5.47H449l3.14,4.23h-4.65Z" transform="translate(-151.92 -233.2)"></path><path class="cls-2" d="M459,291.95l3.2-3.91a7.08,7.08,0,0,0,4.79,2.34c1.3,0,1.81-.71,1.81-1.36,0-.83-.41-1.27-2.66-2-3.2-1.09-6.39-2.63-6.39-6.92,0-3.58,3-6.27,7-6.36a10.76,10.76,0,0,1,7.43,2.81l-3.11,4c-1.83-1.42-3-1.89-4-1.89s-1.48.5-1.48,1.24.44,1.27,2.57,2.1c3.73,1.42,6.54,2.34,6.54,6.39,0,5.27-4.41,7-7.93,7A10.81,10.81,0,0,1,459,291.95Z" transform="translate(-151.92 -233.2)"></path><path class="cls-2" d="M487,274h7.58c6.63,0,10.89,4.32,10.89,10.53s-4,10.48-10.8,10.48H487Zm7.28,16a5.22,5.22,0,0,0,5.3-5.47c0-3.14-2.13-5.53-4.88-5.53h-2.25v11Z" transform="translate(-151.92 -233.2)"></path><path class="cls-2" d="M509.21,274h14v5h-8.52v3.17h6.66V287h-6.66v3h9.14v5H509.21Z" transform="translate(-151.92 -233.2)"></path><path class="cls-2" d="M527.55,274h5.8v16h8.2v5h-14Z" transform="translate(-151.92 -233.2)"></path><path class="cls-2" d="M547.94,274h6.13l4,13h.06l4.05-13h6l-7.66,21h-4.94Z" transform="translate(-151.92 -233.2)"></path><path class="cls-2" d="M574.63,274H580l7.61,21h-5.86l-1.07-3.4H574l-1.07,3.4H567Zm4.62,12.9-1.89-6.07h-.06l-1.89,6.07Z" transform="translate(-151.92 -233.2)"></path><path class="cls-2" d="M590.46,274h5.8v16h8.2v5h-14Z" transform="translate(-151.92 -233.2)"></path><path class="cls-2" d="M607.86,274h5.8v16h8.2v5h-14Z" transform="translate(-151.92 -233.2)"></path><path class="cls-2" d="M625.23,274h14v5h-8.52v3.17h6.66V287h-6.66v3h9.14v5H625.23Zm1.78-5.47h5.24l3.14,4.23h-4.65Z" transform="translate(-151.92 -233.2)"></path><path class="cls-2" d="M642.25,291.95l3.2-3.91a7.08,7.08,0,0,0,4.79,2.34c1.3,0,1.81-.71,1.81-1.36,0-.83-.41-1.27-2.66-2-3.2-1.09-6.39-2.63-6.39-6.92,0-3.58,3-6.27,7-6.36a10.76,10.76,0,0,1,7.43,2.81l-3.11,4c-1.83-1.42-3-1.89-4-1.89s-1.48.5-1.48,1.24.44,1.27,2.57,2.1c3.73,1.42,6.54,2.34,6.54,6.39,0,5.27-4.41,7-7.93,7A10.81,10.81,0,0,1,642.25,291.95Z" transform="translate(-151.92 -233.2)"></path><path class="cls-2" d="M290,305.42h2.57l8,21h-2.69L296,321.31h-9.38l-1.86,5.12H282Zm5.18,13.64-3.88-10.53h-.06l-3.82,10.53Z" transform="translate(-151.92 -233.2)"></path><path class="cls-2" d="M303,323.89l1.48-1.89a5.62,5.62,0,0,0,4,2.13c2,0,3.43-1.18,3.43-4.59V305.42h2.6V319.6c0,4.53-1.81,7-5.92,7A7.33,7.33,0,0,1,303,323.89Z" transform="translate(-151.92 -233.2)"></path><path class="cls-2" d="M322,317.88V305.42h2.57V317.7c0,3.88,2.16,6.48,5.56,6.48s5.59-2.43,5.59-6.48V305.42h2.57v12.46c0,5.39-3.17,8.73-8.17,8.73C325.33,326.61,322,323.41,322,317.88Z" transform="translate(-151.92 -233.2)"></path><path class="cls-2" d="M346.16,305.42h2.54l11.87,16.72h0V305.42h2.57v21h-2.63l-11.75-16.54h-.06v16.54h-2.57Z" transform="translate(-151.92 -233.2)"></path><path class="cls-2" d="M375.9,307.76h-6.27v-2.34h15.21v2.34h-6.36v18.67H375.9Z" transform="translate(-151.92 -233.2)"></path><path class="cls-2" d="M395.34,305.42h2.57l8,21h-2.69l-1.89-5.12h-9.38l-1.86,5.12h-2.69Zm5.18,13.64-3.88-10.53h-.06l-3.82,10.53Z" transform="translate(-151.92 -233.2)"></path><path class="cls-2" d="M412.21,305.42h2.6L422.53,319h.06l7.72-13.58h2.57v21h-2.57v-16h-.06l-6.84,11.78h-1.75l-6.84-11.78h0v16h-2.6Z" transform="translate(-151.92 -233.2)"></path><path class="cls-2" d="M441.06,305.42h12.87v2.34h-10.3v7h8.43v2.34h-8.43v7h10.92v2.34H441.06Z" transform="translate(-151.92 -233.2)"></path><path class="cls-2" d="M461.56,305.42h2.54L476,322.14h0V305.42h2.57v21h-2.63L464.2,309.89h-.06v16.54h-2.57Z" transform="translate(-151.92 -233.2)"></path><path class="cls-2" d="M491.3,307.76H485v-2.34h15.21v2.34h-6.36v18.67H491.3Z" transform="translate(-151.92 -233.2)"></path><polygon class="cls-2" points="56.62 92.09 61.39 96.86 61.39 87.93 56.62 87.93 56.62 92.09"></polygon><path class="cls-2" d="M266,304.92a3.74,3.74,0,0,0-1.18-2.72L228,265.45a4.12,4.12,0,0,0-5.76,0l-36.9,36.76a4.09,4.09,0,0,0,0,5.74l36.9,36.76a4.12,4.12,0,0,0,5.76,0l36.9-36.76a3.76,3.76,0,0,0,1.18-2.71c0-.06,0-.12,0-.18S266,305,266,304.92ZM245,309.35H227.49v-7.07h11v0A23.17,23.17,0,0,1,245,309.35Zm-33.28-29h7.13v4h2.36V272.87H229v11.45h2.36v-4h7.11v19.63h-8.07v-4a5.35,5.35,0,0,0-5.33-5.33h0a5.35,5.35,0,0,0-5.33,5.33v4h-8.07Zm0,22h11.11v7.07H205.2A23.17,23.17,0,0,1,211.66,302.28Zm30.06,22.9L237,329.95h0l-4.71,4.71h0l-4.76,4.76h0l-2.41,2.41-23-23a22.88,22.88,0,0,1,1-4.81h19.68v7.06H218v13.63l4.76,4.76V321.13h4.71v18.29l4.76-4.76V321.13h-4.76v-7.06h19.57a22.92,22.92,0,0,1,1,4.81Z" transform="translate(-151.92 -233.2)"></path><polygon class="cls-2" points="85.04 87.93 85.04 96.75 89.81 91.98 89.81 87.93 85.04 87.93"></polygon><path class="cls-2" d="M251,253l-1.76,5.27a86.49,86.49,0,0,0-20.64-3.34v-5.56q-1.78-.07-3.57-.07t-3.57.07v5.56a86.49,86.49,0,0,0-20.64,3.34L199.11,253q-3.42,1-6.77,2.27l1.1,3.27,2.24,6.7a82.38,82.38,0,0,1,58.81,0l1.57-4.7,1.77-5.28Q254.47,254,251,253Z" transform="translate(-151.92 -233.2)"></path></svg>